<svg width="346" height="258" viewBox="0 0 346 258" fill="none" xmlns="http://www.w3.org/2000/svg">
<path d="M346 226.702H0V226.91H346V226.702Z" fill="#EBEBEB"/>
<path d="M311.331 237.85H288.426V238.058H311.331V237.85Z" fill="#EBEBEB"/>
<path d="M229.19 239.789H223.17V239.997H229.19V239.789Z" fill="#EBEBEB"/>
<path d="M287.734 231.48H274.447V231.688H287.734V231.48Z" fill="#EBEBEB"/>
<path d="M66.2244 232.588H36.33V232.796H66.2244V232.588Z" fill="#EBEBEB"/>
<path d="M76.7428 232.588H72.3832V232.796H76.7428V232.588Z" fill="#EBEBEB"/>
<path d="M155.838 235.565H90.998V235.773H155.838V235.565Z" fill="#EBEBEB"/>
<path d="M164.004 195.82H30.3788C28.2336 195.82 26.4344 194.019 26.4344 191.873V3.94686C26.4344 1.80032 28.2336 0 30.3788 0H164.004C166.149 0 167.948 1.80032 167.948 3.94686V191.873C167.948 194.089 166.218 195.82 164.004 195.82ZM30.3788 0.207729C28.3028 0.207729 26.5728 1.86957 26.5728 4.0161V191.942C26.5728 194.019 28.2336 195.75 30.3788 195.75H164.004C166.08 195.75 167.81 194.089 167.81 191.942V3.94686C167.81 1.86956 166.149 0.138486 164.004 0.138486H30.3788V0.207729Z" fill="#EBEBEB"/>
<path d="M313.684 195.82H180.058C177.913 195.82 176.114 194.019 176.114 191.873V3.94686C176.114 1.80032 177.913 0 180.058 0H313.684C315.829 0 317.628 1.80032 317.628 3.94686V191.873C317.628 194.089 315.898 195.82 313.684 195.82ZM180.058 0.207729C177.982 0.207729 176.252 1.86957 176.252 4.0161V191.942C176.252 194.019 177.913 195.75 180.058 195.75H313.684C315.76 195.75 317.49 194.089 317.49 191.942V3.94686C317.49 1.86956 315.829 0.138486 313.684 0.138486H180.058V0.207729Z" fill="#EBEBEB"/>
<path d="M123.977 129.963L284.313 129.963V23.2588L123.977 23.2588V129.963Z" fill="#E6E6E6"/>
<path d="M121.505 129.963L281.841 129.963V23.2588L121.505 23.2588V129.963Z" fill="#F5F5F5"/>
<path d="M277.345 124.985V28.322L125.936 28.322L125.936 124.985L277.345 124.985Z" fill="white"/>
<path d="M127.835 124.954L127.835 28.291H125.967L125.967 124.954H127.835Z" fill="#E6E6E6"/>
<path d="M123.304 101.661L279.973 101.661V94.9449L123.304 94.9449V101.661Z" fill="#F5F5F5"/>
<g opacity="0.4">
<path opacity="0.4" d="M131.688 18.0724H116.533V108.296H131.688V18.0724Z" fill="#E6E6E6"/>
<path opacity="0.4" d="M131.699 101.012H139.172V17.9898H131.699V101.012Z" fill="#F5F5F5"/>
<path opacity="0.4" d="M154.316 18.0724H139.161V108.296H154.316V18.0724Z" fill="#E6E6E6"/>
<path opacity="0.4" d="M154.284 101.012H161.757V17.9898H154.284V101.012Z" fill="#F5F5F5"/>
<path opacity="0.4" d="M176.944 18.0724H161.79V108.296H176.944V18.0724Z" fill="#E6E6E6"/>
<path opacity="0.4" d="M176.938 101.012H184.411V17.9898H176.938V101.012Z" fill="#F5F5F5"/>
<path opacity="0.4" d="M199.573 18.0724H184.418V108.296H199.573V18.0724Z" fill="#E6E6E6"/>
<path opacity="0.4" d="M199.592 101.012H207.065V17.9898H199.592V101.012Z" fill="#F5F5F5"/>
<path opacity="0.4" d="M222.201 18.0724H207.046V108.296H222.201V18.0724Z" fill="#E6E6E6"/>
<path opacity="0.4" d="M222.246 101.012H229.719V17.9898H222.246V101.012Z" fill="#F5F5F5"/>
<path opacity="0.4" d="M244.899 18.0724H229.744V108.296H244.899V18.0724Z" fill="#E6E6E6"/>
<path opacity="0.4" d="M244.9 101.012H252.373V17.9898H244.9V101.012Z" fill="#F5F5F5"/>
<path opacity="0.4" d="M267.527 18.0724H252.372V108.296H267.527V18.0724Z" fill="#E6E6E6"/>
<path opacity="0.4" d="M267.554 101.012H275.027V17.9898H267.554V101.012Z" fill="#F5F5F5"/>
<path opacity="0.4" d="M290.156 18.0724H275.001V108.296H290.156V18.0724Z" fill="#E6E6E6"/>
</g>
<path d="M57.2798 226.767H92.7794L92.7794 153.784H57.2798L57.2798 226.767Z" fill="#EBEBEB"/>
<path d="M64.0101 226.702H57.2977V211.884H71.0685L64.0101 226.702Z" fill="#F5F5F5"/>
<path d="M259.808 226.767H295.308V153.784H259.808V226.767Z" fill="#EBEBEB"/>
<path d="M57.3138 217.646L265.675 217.646V153.804L57.3138 153.804V217.646Z" fill="#F5F5F5"/>
<path d="M258.739 199.628H196.943C196.597 199.628 196.39 199.351 196.39 199.074V158.636C196.39 158.29 196.666 158.082 196.943 158.082H208.361C208.5 158.082 208.569 158.151 208.707 158.221C210.368 159.398 212.236 160.367 214.243 161.06C216.596 161.821 219.087 162.237 221.717 162.237H233.965C238.878 162.237 243.446 160.783 246.975 158.221C247.044 158.151 247.182 158.082 247.321 158.082H258.739C259.085 158.082 259.292 158.359 259.292 158.636V199.074C259.292 199.351 259.085 199.628 258.739 199.628ZM197.566 198.451H258.185V159.19H247.528C243.861 161.891 239.017 163.345 233.965 163.345H221.717C219.018 163.345 216.388 162.929 213.897 162.098C211.821 161.406 209.884 160.436 208.154 159.19H197.497V198.451H197.566Z" fill="#E6E6E6"/>
<path d="M192.376 199.628H130.58C130.234 199.628 130.027 199.351 130.027 199.074V158.636C130.027 158.29 130.304 158.082 130.58 158.082H141.376C141.514 158.082 141.583 158.151 141.722 158.221C143.382 159.467 145.251 160.367 147.258 161.06C149.61 161.821 152.102 162.237 154.731 162.237H166.98C171.824 162.237 176.46 160.783 179.989 158.221C180.058 158.151 180.197 158.082 180.335 158.082H192.376C192.722 158.082 192.93 158.359 192.93 158.636V199.074C192.93 199.351 192.653 199.628 192.376 199.628ZM131.134 198.451H191.753V159.19H180.474C176.806 161.891 171.962 163.345 166.91 163.345H154.662C151.963 163.345 149.334 162.929 146.842 162.098C144.766 161.406 142.829 160.436 141.099 159.19H131.065V198.451H131.134Z" fill="#E6E6E6"/>
<path d="M126.013 199.628H64.2176C63.8716 199.628 63.664 199.351 63.664 199.074V158.636C63.664 158.29 63.9408 158.082 64.2176 158.082H75.0128C75.1512 158.082 75.2204 158.151 75.3588 158.221C77.0196 159.398 78.888 160.367 80.964 161.06C83.3168 161.821 85.808 162.237 88.4376 162.237H100.686C105.599 162.237 110.166 160.783 113.696 158.221C113.765 158.151 113.903 158.082 114.042 158.082H126.082C126.428 158.082 126.636 158.359 126.636 158.636V199.074C126.567 199.351 126.29 199.628 126.013 199.628ZM64.7712 198.451H125.39V159.19H114.18C110.512 161.891 105.668 163.345 100.617 163.345H88.3684C85.6696 163.345 83.04 162.929 80.5488 162.098C78.4728 161.406 76.5352 160.436 74.8052 159.19H64.7712V198.451Z" fill="#E6E6E6"/>
<path d="M258.946 226.702H265.659V211.884H251.888L258.946 226.702Z" fill="#F5F5F5"/>
<path d="M99.5789 141.533H93.9737C94.0429 137.655 93.9737 127.823 93.5585 105.25C92.8665 64.3961 91.5517 61.9033 91.5517 61.9033L98.1949 82.0531C99.7865 86.8309 100.686 91.7471 100.894 96.7326C101.724 112.451 98.9561 125.053 99.5789 141.533Z" fill="#E6E6E6"/>
<path d="M103.869 75.9597C111.343 64.6731 126.221 58.7181 141.445 53.1787C147.396 51.0322 130.65 78.037 118.401 90.293C108.921 99.8486 99.7864 99.6408 97.0184 109.058C96.534 98.1175 97.4336 85.723 103.869 75.9597Z" fill="#E6E6E6"/>
<path d="M95.2884 68.6892C89.4064 55.4638 74.6668 38.2915 57.9896 26.2431C51.4848 21.4654 67.5392 62.2496 78.9572 78.9372C87.8148 91.9549 96.0496 99.8486 97.3644 109.127C102.9 97.4944 101.17 81.9146 95.2884 68.6892Z" fill="#E6E6E6"/>
<path d="M95.842 153.72C102.416 153.72 107.814 148.596 108.229 142.018L109.336 130.87H82.4172L83.5244 142.087C83.8704 148.596 89.268 153.72 95.842 153.72Z" fill="#F0F0F0"/>
<path d="M80.6181 130.939H111.066L111.966 126.923H79.7877L80.6181 130.939Z" fill="#F0F0F0"/>
<path d="M82.1404 137.725H109.544L110.374 133.778H81.3792L82.1404 137.725Z" fill="#F0F0F0"/>
<path d="M173 258C247.105 258 307.179 254.497 307.179 250.176C307.179 245.854 247.105 242.351 173 242.351C98.8951 242.351 38.8212 245.854 38.8212 250.176C38.8212 254.497 98.8951 258 173 258Z" fill="#F5F5F5"/>
<path d="M280.468 182.386H65.5324V206.76H280.468V182.386Z" fill="#71B219"/>
<path opacity="0.3" d="M280.468 182.386H234.38V206.76H280.468V182.386Z" fill="black"/>
<path d="M89.268 206.691H65.5324V250.106H89.268V206.691Z" fill="#71B219"/>
<path opacity="0.3" d="M65.5324 206.691V209.114L82.348 214.238V250.175H89.268V206.691H65.5324Z" fill="black"/>
<path d="M280.468 206.691H256.732V250.106H280.468V206.691Z" fill="#71B219"/>
<path opacity="0.3" d="M256.732 206.691V209.114L273.548 214.238V250.175H280.468V206.691H256.732Z" fill="black"/>
<path d="M234.38 206.691H210.645V250.106H234.38V206.691Z" fill="#71B219"/>
<path opacity="0.3" d="M210.645 206.691V209.114L227.46 214.238V250.175H234.38V206.691H210.645Z" fill="black"/>
<path d="M135.355 206.691H111.62V250.106H135.355V206.691Z" fill="#71B219"/>
<path opacity="0.3" d="M111.62 206.691V209.114L128.435 214.238V250.175H135.355V206.691H111.62Z" fill="black"/>
<path d="M250.85 177.609H119.439C117.709 177.609 116.325 176.155 116.464 174.424L121.861 88.4928C122 86.7617 123.522 85.3076 125.252 85.3076H256.663C258.393 85.3076 259.777 86.7617 259.638 88.4928L254.241 174.424C254.102 176.155 252.58 177.609 250.85 177.609Z" fill="#263238"/>
<path opacity="0.6" d="M250.85 177.609H119.439C117.709 177.609 116.325 176.155 116.464 174.424L121.861 88.4928C122 86.7617 123.522 85.3076 125.252 85.3076H256.663C258.393 85.3076 259.777 86.7617 259.638 88.4928L254.241 174.424C254.102 176.155 252.58 177.609 250.85 177.609Z" fill="black"/>
<path d="M249.881 177.609H118.47C116.74 177.609 115.356 176.155 115.495 174.424L120.892 88.4928C121.031 86.7617 122.553 85.3076 124.283 85.3076H255.694C257.424 85.3076 258.808 86.7617 258.67 88.4928L253.272 174.424C253.134 176.155 251.611 177.609 249.881 177.609Z" fill="#263238"/>
<path d="M249.674 178.647H93.3508C91.8284 178.647 90.5136 179.548 89.8908 180.794C89.5448 181.486 90.0984 182.386 90.8596 182.386H252.026C252.857 182.386 253.41 181.556 252.995 180.794C252.511 179.548 251.196 178.647 249.674 178.647Z" fill="#263238"/>
<path opacity="0.6" d="M249.674 178.647H227.46C225.938 178.647 224.623 179.548 224 180.794C223.654 181.486 224.208 182.386 224.969 182.386H252.026C252.857 182.386 253.41 181.556 252.995 180.794C252.511 179.548 251.196 178.647 249.674 178.647Z" fill="black"/>
<path opacity="0.7" d="M162.066 181.348H156.323C156.046 181.348 155.838 181.14 155.838 180.863C155.838 180.586 156.046 180.378 156.323 180.378H162.066C162.343 180.378 162.551 180.586 162.551 180.863C162.551 181.14 162.343 181.348 162.066 181.348Z" fill="white"/>
<path d="M118.47 171.308L123.522 91.6087C123.591 90.9163 124.145 90.3623 124.837 90.3623H254.587C255.279 90.3623 255.763 90.9163 255.763 91.6087L250.712 171.308C250.642 172 250.089 172.554 249.397 172.554H119.578C118.955 172.554 118.401 172 118.47 171.308Z" fill="white"/>
<path opacity="0.1" d="M192.238 87.8696L149.057 170.061H117.156C116.464 170.061 115.979 169.507 115.979 168.815L121.031 89.116C121.1 88.4236 121.654 87.8696 122.346 87.8696H192.238Z" fill="#B8D88C"/>
<path opacity="0.1" d="M230.09 87.8696L186.909 170.061H176.806L220.056 87.8696H230.09Z" fill="#B8D88C"/>
<path opacity="0.1" d="M253.203 89.116L248.151 168.815C248.082 169.507 247.528 170.061 246.836 170.061H197.704L240.885 87.8696H251.957C252.788 87.8696 253.272 88.4236 253.203 89.116Z" fill="#B8D88C"/>
<path opacity="0.4" d="M190.715 87.9389C190.715 88.4236 190.231 88.839 189.746 88.839C189.262 88.839 188.847 88.4236 188.847 87.9389C188.847 87.4542 189.331 87.0387 189.816 87.0387C190.369 87.0387 190.784 87.4542 190.715 87.9389Z" fill="white"/>
<path d="M169.263 68.8277C165.457 73.19 163.312 86.4155 166.08 92.9936C168.917 99.5024 136.393 106.081 163.174 116.675C190.023 127.269 211.475 115.013 203.725 104.003C195.974 92.9936 204.555 74.7134 195.559 70.0741C187.463 65.9195 176.875 60.1723 169.263 68.8277Z" fill="#263238"/>
<path d="M161.305 122.353C159.852 127.2 158.399 132.047 156.807 136.894C155.216 141.741 153.624 146.519 151.894 151.366L151.271 153.166L150.925 154.066L150.856 154.343L150.718 154.758C150.648 155.035 150.441 155.312 150.302 155.589C149.68 156.697 148.642 157.874 147.396 158.567C146.15 159.259 144.836 159.467 143.798 159.536C141.652 159.536 140.061 159.052 138.608 158.498C137.154 157.944 135.909 157.251 134.732 156.559C129.958 153.72 126.082 150.327 122.346 146.519L125.321 142.987C126.359 143.61 127.397 144.303 128.435 144.926C129.473 145.549 130.58 146.172 131.618 146.796C133.764 148.042 135.909 149.15 137.985 150.05C139.023 150.535 140.061 150.881 141.03 151.158C141.998 151.435 142.898 151.504 143.313 151.435C143.521 151.366 143.452 151.296 143.313 151.366C143.175 151.435 142.967 151.573 142.967 151.573C142.967 151.573 142.967 151.573 142.967 151.504C142.967 151.504 142.967 151.504 142.967 151.435L143.036 151.227L143.313 150.327L143.867 148.527L148.088 133.986C149.541 129.138 150.994 124.291 152.517 119.444L161.305 122.353Z" fill="#FFBE9D"/>
<path d="M124.975 142.849L116.948 139.871L120.131 148.388C120.131 148.388 125.806 149.219 128.02 146.242L126.221 143.818C125.944 143.403 125.46 143.056 124.975 142.849Z" fill="#FFBE9D"/>
<path d="M109.82 142.364L112.934 149.358L120.2 148.388L116.948 139.871L109.82 142.364Z" fill="#FFBE9D"/>
<path d="M155.423 109.82C151.756 110.789 149.195 125.884 149.195 125.884L159.298 132.808C159.298 132.808 168.986 117.506 166.218 113.489C163.243 109.266 160.752 108.435 155.423 109.82Z" fill="#71B219"/>
<path opacity="0.2" d="M155.077 115.29L162.966 117.09L163.727 124.776C161.651 129 159.298 132.739 159.298 132.739L153.139 128.584C153.416 125.053 154.108 117.713 155.077 115.29Z" fill="black"/>
<path d="M155.423 109.82C155.423 109.82 151.202 111.343 159.714 163.691C174.107 163.691 188.985 163.691 195.974 163.691C195.352 148.942 195.352 139.802 202.41 109.543C202.41 109.543 194.798 107.881 187.048 107.535C180.958 107.258 175.976 107.05 170.578 107.535C163.45 108.158 155.423 109.82 155.423 109.82Z" fill="#71B219"/>
<path opacity="0.2" d="M193.829 123.599L198.535 127.615C197.566 132.878 196.874 137.309 196.459 141.256C195.49 137.309 193.276 126.646 193.829 123.599Z" fill="black"/>
<path d="M185.318 88.9774C184.28 94.3091 183.242 104.003 186.978 107.535C186.978 107.535 183.518 115.498 174.315 115.498C165.111 115.498 170.509 107.535 170.509 107.535C176.391 106.15 176.252 101.718 175.214 97.6328L185.318 88.9774Z" fill="#FFBE9D"/>
<path d="M185.733 105.526C184.833 107.327 182.065 111.343 174.176 112.797C173.969 112.866 173.761 112.797 173.554 112.659C172.1 111.62 171.201 109.473 171.824 106.981C172.031 106.288 171.339 105.665 170.647 105.942C169.886 106.288 169.194 106.634 168.917 106.842C168.779 106.911 168.71 107.05 168.64 107.188C168.087 108.296 165.734 113.559 172.792 116.813C172.931 116.882 173 116.882 173.138 116.882C177.29 116.952 184.556 116.121 189.124 107.881C189.262 107.604 189.262 107.188 189.054 106.911C188.57 106.288 187.601 105.596 186.909 105.18C186.563 104.973 186.01 105.111 185.733 105.526Z" fill="#FAFAFA"/>
<path d="M187.67 127.338L178.328 127.061C177.913 127.061 177.636 126.715 177.636 126.299L177.706 125.122C177.706 124.707 178.121 124.361 178.536 124.43L187.878 124.707C188.293 124.707 188.57 125.053 188.57 125.469L188.501 126.646C188.501 127.061 188.086 127.338 187.67 127.338Z" fill="#FAFAFA"/>
<path opacity="0.2" d="M181.166 92.5088L175.214 97.6328C175.491 98.6022 175.63 99.5716 175.699 100.541C177.982 100.195 181.027 97.7713 181.304 95.3478C181.442 94.1706 181.373 93.0627 181.166 92.5088Z" fill="black"/>
<path d="M192.307 79.0064C190.646 87.731 190.092 91.4009 185.11 95.3478C177.567 101.233 167.256 97.2866 166.288 88.285C165.457 80.1835 168.294 67.3043 177.36 64.8808C186.217 62.5265 193.967 70.2817 192.307 79.0064Z" fill="#FFBE9D"/>
<path d="M187.324 72.4975C186.217 77.9677 186.01 85.169 190.992 85.169C195.974 85.169 199.919 76.6521 195.559 70.0048C191.338 63.4267 187.947 69.3123 187.324 72.4975Z" fill="#263238"/>
<path d="M195.974 73.19C195.974 79.1449 188.501 76.1675 185.179 73.6055C181.858 71.0435 181.719 71.3204 175.63 71.3204C169.54 71.3204 168.294 70.905 166.495 67.9968C164.696 65.0885 164.834 63.1497 168.917 63.7729C173 64.3961 169.54 60.2415 172.585 57.9565C175.63 55.6715 179.228 56.2254 183.38 61.4879C187.532 66.7504 195.974 62.942 195.974 73.19Z" fill="#263238"/>
<path d="M193.75 86.6844C194.535 84.0055 193.774 81.424 192.05 80.9184C190.326 80.4128 188.293 82.1746 187.508 84.8535C186.723 87.5323 187.484 90.1139 189.208 90.6195C190.932 91.1251 192.965 89.3633 193.75 86.6844Z" fill="white"/>
<path d="M179.92 93.409C178.328 93.409 176.737 93.0628 175.284 92.4396C175.145 92.3703 175.076 92.2319 175.145 92.0934C175.214 91.9549 175.353 91.8856 175.491 91.9549C178.328 93.132 181.442 93.2013 184.28 92.0241C187.048 90.847 189.193 88.7005 190.369 85.9307C192.445 79.9758 194.59 72.5668 192.099 67.9275C191.13 66.1272 189.539 64.9501 187.324 64.3961C187.186 64.3269 187.117 64.1884 187.117 64.0499C187.186 63.9114 187.324 63.8422 187.463 63.8422C189.816 64.4654 191.546 65.7117 192.584 67.6505C195.144 72.4283 192.999 79.9758 190.854 86.0692C189.677 88.9774 187.394 91.1932 184.487 92.4396C182.965 93.132 181.442 93.409 179.92 93.409Z" fill="white"/>
<path opacity="0.6" d="M193.552 86.7616C192.93 88.8389 191.546 90.293 190.369 89.9468C189.262 89.6006 188.847 87.6618 189.47 85.5153C190.092 83.438 191.476 81.9839 192.653 82.3301C193.691 82.6763 194.106 84.6151 193.552 86.7616Z" fill="#9BC95E"/>
<path d="M175.63 93.2012L172.931 92.6473C172.446 92.5781 172.17 92.0934 172.239 91.6087V91.4702C172.308 90.9855 172.792 90.7085 173.277 90.7777L175.976 91.3317C176.46 91.4009 176.737 91.8856 176.668 92.3703V92.5088C176.529 92.9243 176.114 93.2705 175.63 93.2012Z" fill="white"/>
<path d="M173.969 88.4234C173.969 88.4927 173.969 88.4927 173.969 88.4234C176.46 88.7696 178.328 87.1771 178.398 87.1078C178.467 87.0386 178.467 86.9693 178.398 86.9001C178.328 86.8308 178.259 86.8308 178.19 86.9001C178.19 86.9001 176.322 88.4234 174.038 88.1465C173.969 88.1465 173.9 88.2157 173.9 88.2849C173.9 88.3542 173.899 88.4234 173.969 88.4234Z" fill="#263238"/>
<path d="M181.857 76.3059C181.927 76.3751 182.065 76.3059 182.134 76.3059C182.273 76.2367 182.273 76.0289 182.203 75.9597C181.027 74.0209 179.159 74.0209 179.02 74.0209C178.882 74.0209 178.743 74.1594 178.743 74.2978C178.743 74.4363 178.882 74.5748 179.02 74.5748C179.09 74.5748 180.681 74.6441 181.719 76.3059C181.788 76.2367 181.788 76.2367 181.857 76.3059Z" fill="#263238"/>
<path d="M177.913 79.8373C177.775 80.5297 177.29 81.0837 176.875 81.0144C176.391 80.9452 176.114 80.322 176.252 79.5603C176.391 78.8679 176.875 78.3139 177.29 78.3832C177.775 78.4524 178.052 79.0756 177.913 79.8373Z" fill="#263238"/>
<path d="M169.817 78.4525C169.678 79.145 169.194 79.6989 168.779 79.6297C168.294 79.5604 168.018 78.9372 168.156 78.1755C168.294 77.4831 168.779 76.9292 169.194 76.9984C169.609 77.0677 169.955 77.7601 169.817 78.4525Z" fill="#263238"/>
<path d="M169.402 77.0676L167.741 76.3059C167.81 76.3059 168.433 77.76 169.402 77.0676Z" fill="#263238"/>
<path d="M177.498 78.4525L175.837 77.6908C175.837 77.6908 176.529 79.1449 177.498 78.4525Z" fill="#263238"/>
<path d="M167.118 73.6054C167.187 73.6747 167.326 73.6054 167.395 73.6054C168.917 72.4283 170.44 72.913 170.509 72.913C170.647 72.9822 170.786 72.913 170.855 72.7745C170.924 72.636 170.855 72.4975 170.716 72.4283C170.647 72.4283 168.848 71.8051 167.049 73.19C166.91 73.2592 166.91 73.4669 166.98 73.5362C167.049 73.6054 167.049 73.6054 167.118 73.6054Z" fill="#263238"/>
<path d="M158.33 172.554C158.33 172.554 158.26 167.568 159.714 163.691C162.897 163.691 195.974 163.691 195.974 163.691C195.974 163.691 199.227 168.953 200.057 172.554C195.905 172.554 158.33 172.554 158.33 172.554Z" fill="#71B219"/>
<path d="M196.46 161.544L196.736 164.799C196.875 165.076 196.598 165.283 196.114 165.283H159.438C159.092 165.283 158.815 165.145 158.815 164.937L158.469 161.683C158.469 161.475 158.746 161.267 159.092 161.267H195.768C196.114 161.267 196.39 161.406 196.46 161.544Z" fill="#E6E6E6"/>
<path d="M191.546 165.699H192.514C192.722 165.699 192.86 165.63 192.86 165.491L192.376 161.267C192.376 161.129 192.168 161.06 192.03 161.06H190.992C190.784 161.06 190.646 161.129 190.646 161.267L191.13 165.491C191.13 165.56 191.338 165.699 191.546 165.699Z" fill="#FAFAFA"/>
<path d="M162.274 165.699H163.243C163.45 165.699 163.589 165.63 163.589 165.491L163.104 161.267C163.104 161.129 162.897 161.06 162.758 161.06H161.79C161.582 161.06 161.444 161.129 161.444 161.267L161.928 165.491C161.859 165.56 162.066 165.699 162.274 165.699Z" fill="#FAFAFA"/>
<path d="M176.875 165.699H177.844C178.052 165.699 178.19 165.63 178.19 165.491L177.706 161.267C177.706 161.129 177.498 161.06 177.36 161.06H176.391C176.183 161.06 176.045 161.129 176.045 161.267L176.529 165.491C176.529 165.56 176.668 165.699 176.875 165.699Z" fill="#FAFAFA"/>
<path d="M205.455 119.791C207.046 124.984 208.569 130.177 210.022 135.37L212.236 143.195L213.344 147.072L213.62 148.042L213.759 148.527V148.665L213.62 148.527C213.551 148.388 213.413 148.18 212.998 147.903C212.652 147.626 211.89 147.28 211.129 147.28C210.437 147.28 209.884 147.419 209.676 147.557C209.192 147.834 209.261 147.903 209.261 147.834C209.33 147.765 209.468 147.626 209.607 147.488C209.884 147.142 210.23 146.657 210.506 146.172C211.129 145.203 211.752 144.026 212.306 142.918C213.482 140.633 214.52 138.209 215.627 135.717C216.665 133.293 217.703 130.8 218.741 128.308C219.779 125.815 220.748 123.322 221.786 120.829L226.215 122.145C225.038 127.546 223.724 132.878 222.063 138.14C221.232 140.771 220.333 143.403 219.295 146.103C218.741 147.419 218.188 148.734 217.496 150.119C217.15 150.812 216.734 151.504 216.25 152.266C215.973 152.681 215.696 153.027 215.281 153.512C214.866 153.927 214.382 154.481 213.274 155.035C212.721 155.312 211.89 155.589 210.852 155.52C209.814 155.52 208.707 155.035 208.084 154.481C207.392 153.997 207.046 153.512 206.77 153.097C206.493 152.681 206.354 152.335 206.216 152.058C206.147 151.919 206.078 151.712 206.008 151.642L205.87 151.296L205.662 150.812L205.316 149.842C204.832 148.527 204.348 147.28 203.932 145.965C203.033 143.403 202.133 140.771 201.303 138.209C199.642 133.016 198.05 127.823 196.528 122.56L205.455 119.791Z" fill="#FFBE9D"/>
<path d="M202.341 109.543C205.939 110.651 211.544 124.915 211.544 124.915L197.428 135.024C197.428 135.024 191.061 122.837 192.653 118.129C194.244 113.213 198.189 108.296 202.341 109.543Z" fill="#71B219"/>
<path d="M221.924 122.63L219.987 114.113L228.014 118.336C228.014 118.336 228.083 124.084 224.9 125.884L221.924 122.63Z" fill="#FFBE9D"/>
<path d="M223.378 107.327L228.498 110.997L228.014 118.337L219.987 114.113L223.378 107.327Z" fill="#FFBE9D"/>
<path d="M79.58 64.4653H135.632C140.199 64.4653 143.728 68.2045 143.452 72.7745L141.929 98.1867C141.652 102.757 137.708 106.496 133.141 106.496H126.636L129.266 115.221L116.602 106.496H77.0888C72.5216 106.496 68.9924 102.757 69.2692 98.1867L70.7916 72.7745C71.0684 68.2045 75.0128 64.4653 79.58 64.4653Z" fill="#71B219"/>
<path d="M130.511 77.76H83.1092C82.2788 77.76 81.5868 77.0676 81.656 76.1674C81.7252 75.3365 82.4864 74.5748 83.3168 74.5748H130.719C131.549 74.5748 132.241 75.2673 132.172 76.1674C132.103 77.0676 131.342 77.76 130.511 77.76Z" fill="white"/>
<path d="M102.416 87.0386H82.4864C81.656 87.0386 80.964 86.3462 81.0332 85.446C81.1024 84.6151 81.8636 83.8534 82.694 83.8534H102.624C103.454 83.8534 104.146 84.5458 104.077 85.446C104.077 86.3462 103.316 87.0386 102.416 87.0386Z" fill="white"/>
<path d="M119.439 96.3171H81.9328C81.1024 96.3171 80.4104 95.6247 80.4796 94.7245C80.5488 93.8936 81.31 93.132 82.1404 93.132H119.647C120.477 93.132 121.169 93.8244 121.1 94.7245C121.1 95.6247 120.339 96.3171 119.439 96.3171Z" fill="white"/>
<path d="M117.017 87.0386H109.198C108.367 87.0386 107.675 86.3462 107.744 85.446C107.814 84.6151 108.575 83.8534 109.405 83.8534H117.225C118.055 83.8534 118.747 84.5458 118.678 85.446C118.609 86.3462 117.848 87.0386 117.017 87.0386Z" fill="white"/>
<path d="M157.638 18.8341H127.051C123.522 18.8341 120.408 21.7423 120.2 25.2737L119.024 45.0773C118.816 48.6087 121.515 51.5169 125.114 51.5169H130.165L127.259 58.3027L137.985 51.5169H155.7C159.229 51.5169 162.343 48.6087 162.551 45.0773L163.727 25.343C163.935 21.7423 161.167 18.8341 157.638 18.8341Z" fill="#9BC95E"/>
<path d="M142.898 38.4299C142.69 39.33 141.86 39.9532 140.96 39.9532H139.161C139.161 39.4685 139.23 39.1223 139.23 38.9838C139.3 37.8067 139.576 36.9065 139.992 36.1448C140.407 35.3832 141.237 34.5522 142.414 33.6521C143.59 32.7519 144.351 32.1287 144.559 31.7825C144.905 31.2978 145.112 30.8131 145.182 30.2592C145.251 29.4975 144.974 28.8051 144.351 28.3204C143.798 27.7664 142.967 27.4894 141.929 27.4894C140.96 27.4894 140.061 27.7664 139.369 28.3204C138.954 28.6666 138.608 29.082 138.331 29.636C137.916 30.3977 137.154 30.8824 136.324 30.7439C135.078 30.6054 134.386 29.2205 135.078 28.0434C135.494 27.351 135.978 26.7278 136.67 26.1738C138.054 24.9967 139.853 24.4427 141.998 24.4427C144.282 24.4427 146.012 25.0659 147.258 26.2431C148.503 27.4202 149.126 28.8051 148.988 30.3977C148.918 31.2978 148.642 32.0595 148.088 32.8904C147.534 33.6521 146.427 34.6907 144.766 36.0756C143.867 36.768 143.313 37.322 143.106 37.7374C143.036 37.8759 142.967 38.1529 142.898 38.4299ZM138.954 43.4154V43.2076C139.023 42.169 139.922 41.3381 140.96 41.3381H141.168C142.206 41.3381 142.967 42.169 142.898 43.2076V43.4154C142.829 44.454 141.929 45.2849 140.891 45.2849H140.684C139.646 45.2849 138.884 44.454 138.954 43.4154Z" fill="white"/>
</svg>
